<svg xmlns="http://www.w3.org/2000/svg" viewBox="0 0 200 200" width="200" height="200" role="img" aria-labelledby="avatar-2"><title id="avatar-2">Клиент с котка</title><defs><clipPath id="cavatar-2"><rect width="200" height="200" rx="0"/></clipPath><linearGradient id="gavatar-2" x1="0" y1="0" x2="0" y2="1"><stop offset="0" stop-color="#EAF6F1"/><stop offset="1" stop-color="#FFF8F3"/></linearGradient></defs><g clip-path="url(#cavatar-2)"><rect width="200" height="200" fill="url(#gavatar-2)"/><path d="M55.4 79.2 L67.8 47.0 L87.6 81.7 Z" fill="#BCB0A4"/><path d="M62.8 76.7 L69.0 55.6 L80.2 78.0 Z" fill="#F6B8A8" opacity=".75"/><path d="M112.4 79.2 L132.2 47.0 L144.6 81.7 Z" fill="#BCB0A4"/><path d="M119.8 76.7 L131.0 55.6 L137.2 78.0 Z" fill="#F6B8A8" opacity=".75"/><ellipse cx="100.0" cy="104.0" rx="42.2" ry="38.4" fill="#D8CEC4"/><ellipse cx="83.9" cy="99.0" rx="5.6" ry="6.2" fill="#3A2C27"/><circle cx="85.7" cy="96.9" r="2.0" fill="#fff" opacity=".92"/><ellipse cx="116.1" cy="99.0" rx="5.6" ry="6.2" fill="#3A2C27"/><circle cx="118.0" cy="96.9" r="2.0" fill="#fff" opacity=".92"/><path d="M93.2 113.9 q 6.8 -4.3 13.6 0 q -2.5 8.1 -6.8 8.1 q -4.3 0 -6.8 -8.1 Z" fill="#3A2C27"/><path d="M100.0 122.0 q -5.6 6.2 -11.2 0.6 M100.0 122.0 q 5.6 6.2 11.2 0.6" fill="none" stroke="#3A2C27" stroke-width="2.0" stroke-linecap="round"/><ellipse cx="70.9" cy="111.4" rx="8.1" ry="5.0" fill="#F6B8A8" opacity=".55"/><ellipse cx="129.1" cy="111.4" rx="8.1" ry="5.0" fill="#F6B8A8" opacity=".55"/><path d="M86.4 111.4 q -18.6 -3.7 -34.7 -6.2" fill="none" stroke="#3A2C27" stroke-width="1.4" stroke-linecap="round" opacity=".65"/><path d="M86.4 117.0 q -18.6 -1.2 -34.7 -0.6" fill="none" stroke="#3A2C27" stroke-width="1.4" stroke-linecap="round" opacity=".65"/><path d="M86.4 122.6 q -18.6 1.2 -34.7 5.0" fill="none" stroke="#3A2C27" stroke-width="1.4" stroke-linecap="round" opacity=".65"/><path d="M113.6 111.4 q 18.6 -3.7 34.7 -6.2" fill="none" stroke="#3A2C27" stroke-width="1.4" stroke-linecap="round" opacity=".65"/><path d="M113.6 117.0 q 18.6 -1.2 34.7 -0.6" fill="none" stroke="#3A2C27" stroke-width="1.4" stroke-linecap="round" opacity=".65"/><path d="M113.6 122.6 q 18.6 1.2 34.7 5.0" fill="none" stroke="#3A2C27" stroke-width="1.4" stroke-linecap="round" opacity=".65"/></g></svg>