<svg xmlns="http://www.w3.org/2000/svg" viewBox="0 0 560 560" width="560" height="560" role="img" aria-labelledby="britanskab"><title id="britanskab">Британска късокосместа котка преди процедура</title><defs><clipPath id="cbritanskab"><rect width="560" height="560" rx="0"/></clipPath><linearGradient id="gbritanskab" x1="0" y1="0" x2="0" y2="1"><stop offset="0" stop-color="#EDF3F7"/><stop offset="1" stop-color="#FFF8F3"/></linearGradient></defs><g clip-path="url(#cbritanskab)"><rect width="560" height="560" fill="url(#gbritanskab)"/><circle cx="214" cy="510" r="15" fill="#fff" opacity=".38"/><circle cx="126" cy="481" r="12" fill="#fff" opacity=".38"/><circle cx="33" cy="525" r="7" fill="#fff" opacity=".38"/><circle cx="175" cy="239" r="12" fill="#fff" opacity=".38"/><circle cx="77" cy="381" r="15" fill="#fff" opacity=".38"/><circle cx="287" cy="439" r="12" fill="#fff" opacity=".38"/><circle cx="455" cy="108" r="9" fill="#fff" opacity=".38"/><circle cx="263" cy="66" r="17" fill="#fff" opacity=".38"/><circle cx="353" cy="63" r="12" fill="#fff" opacity=".38"/><circle cx="234" cy="112" r="6" fill="#fff" opacity=".38"/><circle cx="259" cy="48" r="11" fill="#fff" opacity=".38"/><circle cx="288" cy="79" r="15" fill="#fff" opacity=".38"/><circle cx="436.5" cy="442.6" r="32.7" fill="#ACAFB0"/><circle cx="434.9" cy="459.1" r="34.4" fill="#ACAFB0"/><circle cx="435.7" cy="477.3" r="28.7" fill="#ACAFB0"/><circle cx="426.0" cy="493.6" r="31.9" fill="#ACAFB0"/><circle cx="405.3" cy="503.3" r="31.2" fill="#ACAFB0"/><circle cx="395.9" cy="522.1" r="31.0" fill="#ACAFB0"/><circle cx="378.8" cy="536.8" r="34.8" fill="#ACAFB0"/><circle cx="352.7" cy="539.3" r="25.9" fill="#ACAFB0"/><circle cx="328.3" cy="542.1" r="36.1" fill="#ACAFB0"/><circle cx="305.8" cy="554.7" r="32.6" fill="#ACAFB0"/><circle cx="280.0" cy="552.2" r="30.7" fill="#ACAFB0"/><circle cx="255.3" cy="547.4" r="31.2" fill="#ACAFB0"/><circle cx="231.7" cy="542.4" r="32.8" fill="#ACAFB0"/><circle cx="205.5" cy="542.9" r="33.7" fill="#ACAFB0"/><circle cx="187.1" cy="528.7" r="23.5" fill="#ACAFB0"/><circle cx="167.3" cy="518.9" r="34.0" fill="#ACAFB0"/><circle cx="148.8" cy="507.6" r="35.0" fill="#ACAFB0"/><circle cx="136.6" cy="492.3" r="28.9" fill="#ACAFB0"/><circle cx="119.8" cy="478.8" r="24.9" fill="#ACAFB0"/><circle cx="124.5" cy="459.2" r="32.3" fill="#ACAFB0"/><circle cx="115.9" cy="442.6" r="29.5" fill="#ACAFB0"/><circle cx="119.0" cy="425.2" r="29.7" fill="#ACAFB0"/><circle cx="123.4" cy="407.7" r="37.5" fill="#ACAFB0"/><circle cx="131.0" cy="390.2" r="33.1" fill="#ACAFB0"/><circle cx="149.3" cy="378.0" r="38.6" fill="#ACAFB0"/><circle cx="166.0" cy="365.1" r="32.9" fill="#ACAFB0"/><circle cx="181.3" cy="348.6" r="33.9" fill="#ACAFB0"/><circle cx="207.2" cy="345.8" r="35.0" fill="#ACAFB0"/><circle cx="229.4" cy="336.1" r="38.0" fill="#ACAFB0"/><circle cx="254.3" cy="331.6" r="31.3" fill="#ACAFB0"/><circle cx="280.0" cy="324.7" r="31.2" fill="#ACAFB0"/><circle cx="305.1" cy="335.1" r="38.4" fill="#ACAFB0"/><circle cx="332.2" cy="330.9" r="24.9" fill="#ACAFB0"/><circle cx="350.5" cy="350.3" r="37.0" fill="#ACAFB0"/><circle cx="378.8" cy="348.4" r="28.7" fill="#ACAFB0"/><circle cx="391.8" cy="367.3" r="33.9" fill="#ACAFB0"/><circle cx="416.7" cy="373.6" r="25.7" fill="#ACAFB0"/><circle cx="423.6" cy="392.9" r="33.6" fill="#ACAFB0"/><circle cx="429.9" cy="409.9" r="29.2" fill="#ACAFB0"/><circle cx="434.5" cy="426.2" r="30.3" fill="#ACAFB0"/><path d="M132.1 566.5 q 10.3 -199.5 147.9 -199.5 q 137.6 0 147.9 199.5 Z" fill="#92979B"/><path d="M221.5 566.5 q 3.4 -127.3 58.5 -127.3 q 55.0 0 58.5 127.3 Z" fill="#ACAFB0" opacity=".75"/><path d="M156.2 181.2 L190.6 91.8 L245.6 188.1 Z" fill="#92979B"/><path d="M176.8 174.3 L194.0 115.8 L225.0 177.8 Z" fill="#F6B8A8" opacity=".75"/><path d="M314.4 181.2 L369.4 91.8 L403.8 188.1 Z" fill="#92979B"/><path d="M335.0 174.3 L366.0 115.8 L383.2 177.8 Z" fill="#F6B8A8" opacity=".75"/><path d="M156.2 199.4 L104.9 199.2 L150.2 223.3 Z" fill="#ACAFB0"/><path d="M217.7 127.3 L179.1 97.4 L193.5 144.0 Z" fill="#ACAFB0"/><path d="M162.2 304.0 L124.2 360.5 L189.0 339.6 Z" fill="#ACAFB0"/><path d="M147.7 252.8 L76.5 293.3 L158.4 296.0 Z" fill="#ACAFB0"/><path d="M272.3 374.3 L287.9 414.5 L299.7 373.1 Z" fill="#ACAFB0"/><path d="M369.4 145.3 L385.5 81.2 L333.3 121.9 Z" fill="#ACAFB0"/><path d="M411.8 237.7 L472.6 209.1 L405.7 203.1 Z" fill="#ACAFB0"/><path d="M390.7 315.6 L434.5 313.0 L407.5 278.5 Z" fill="#ACAFB0"/><path d="M234.2 119.4 L185.8 66.6 L202.7 136.2 Z" fill="#ACAFB0"/><path d="M238.7 117.3 L190.3 70.1 L201.0 136.9 Z" fill="#ACAFB0"/><circle cx="412.9" cy="250.0" r="44.9" fill="#ACAFB0"/><circle cx="420.6" cy="265.2" r="30.2" fill="#ACAFB0"/><circle cx="418.3" cy="280.4" r="38.9" fill="#ACAFB0"/><circle cx="399.1" cy="289.8" r="45.5" fill="#ACAFB0"/><circle cx="396.8" cy="304.0" r="32.1" fill="#ACAFB0"/><circle cx="391.8" cy="317.8" r="37.9" fill="#ACAFB0"/><circle cx="378.2" cy="325.8" r="40.0" fill="#ACAFB0"/><circle cx="377.0" cy="345.3" r="36.4" fill="#ACAFB0"/><circle cx="364.0" cy="354.6" r="38.7" fill="#ACAFB0"/><circle cx="350.6" cy="363.4" r="29.5" fill="#ACAFB0"/><circle cx="332.5" cy="362.2" r="35.5" fill="#ACAFB0"/><circle cx="316.7" cy="362.6" r="45.9" fill="#ACAFB0"/><circle cx="303.9" cy="375.5" r="27.8" fill="#ACAFB0"/><circle cx="288.0" cy="376.2" r="34.4" fill="#ACAFB0"/><circle cx="272.5" cy="368.9" r="29.1" fill="#ACAFB0"/><circle cx="256.7" cy="372.3" r="27.3" fill="#ACAFB0"/><circle cx="240.9" cy="370.7" r="36.4" fill="#ACAFB0"/><circle cx="229.2" cy="358.3" r="43.9" fill="#ACAFB0"/><circle cx="216.7" cy="350.8" r="29.4" fill="#ACAFB0"/><circle cx="195.8" cy="354.9" r="30.4" fill="#ACAFB0"/><circle cx="188.2" cy="339.8" r="37.3" fill="#ACAFB0"/><circle cx="177.4" cy="329.5" r="36.0" fill="#ACAFB0"/><circle cx="167.0" cy="318.7" r="35.8" fill="#ACAFB0"/><circle cx="166.5" cy="302.4" r="42.6" fill="#ACAFB0"/><circle cx="156.8" cy="291.3" r="26.8" fill="#ACAFB0"/><circle cx="150.1" cy="278.4" r="42.6" fill="#ACAFB0"/><circle cx="143.3" cy="264.8" r="35.2" fill="#ACAFB0"/><circle cx="145.2" cy="250.0" r="30.3" fill="#ACAFB0"/><circle cx="143.5" cy="235.2" r="33.0" fill="#ACAFB0"/><circle cx="156.3" cy="223.1" r="28.5" fill="#ACAFB0"/><circle cx="160.1" cy="209.9" r="39.9" fill="#ACAFB0"/><circle cx="152.8" cy="190.8" r="41.4" fill="#ACAFB0"/><circle cx="171.4" cy="184.2" r="28.8" fill="#ACAFB0"/><circle cx="170.0" cy="164.4" r="33.5" fill="#ACAFB0"/><circle cx="191.5" cy="163.7" r="37.6" fill="#ACAFB0"/><circle cx="198.0" cy="148.1" r="37.0" fill="#ACAFB0"/><circle cx="212.9" cy="142.6" r="32.1" fill="#ACAFB0"/><circle cx="226.5" cy="135.4" r="35.2" fill="#ACAFB0"/><circle cx="240.3" cy="127.1" r="35.1" fill="#ACAFB0"/><circle cx="257.0" cy="129.7" r="46.2" fill="#ACAFB0"/><circle cx="272.6" cy="132.6" r="41.4" fill="#ACAFB0"/><circle cx="287.8" cy="126.9" r="42.4" fill="#ACAFB0"/><circle cx="304.1" cy="123.2" r="37.5" fill="#ACAFB0"/><circle cx="319.4" cy="128.4" r="30.5" fill="#ACAFB0"/><circle cx="330.0" cy="143.6" r="41.2" fill="#ACAFB0"/><circle cx="345.4" cy="145.7" r="28.1" fill="#ACAFB0"/><circle cx="364.2" cy="145.2" r="38.0" fill="#ACAFB0"/><circle cx="366.8" cy="165.5" r="36.5" fill="#ACAFB0"/><circle cx="378.8" cy="173.8" r="43.7" fill="#ACAFB0"/><circle cx="389.4" cy="183.7" r="45.2" fill="#ACAFB0"/><circle cx="402.7" cy="193.0" r="27.4" fill="#ACAFB0"/><circle cx="405.4" cy="207.9" r="45.7" fill="#ACAFB0"/><circle cx="415.2" cy="220.3" r="29.0" fill="#ACAFB0"/><circle cx="411.8" cy="235.8" r="31.4" fill="#ACAFB0"/><ellipse cx="280.0" cy="250.0" rx="117.0" ry="106.6" fill="#ACAFB0"/><ellipse cx="235.3" cy="236.2" rx="15.5" ry="17.3" fill="#3A2C27"/><circle cx="240.4" cy="230.2" r="5.5" fill="#fff" opacity=".92"/><ellipse cx="324.7" cy="236.2" rx="15.5" ry="17.3" fill="#3A2C27"/><circle cx="329.9" cy="230.2" r="5.5" fill="#fff" opacity=".92"/><path d="M261.1 277.5 q 18.9 -12.0 37.8 0 q -6.9 22.4 -18.9 22.4 q -12.0 0 -18.9 -22.4 Z" fill="#3A2C27"/><path d="M280.0 299.9 q -15.5 -17.2 -31.0 -1.7 M280.0 299.9 q 15.5 -17.2 31.0 -1.7" fill="none" stroke="#3A2C27" stroke-width="5.5" stroke-linecap="round"/><path d="M242.2 270.6 q -51.6 -10.3 -96.3 -17.2" fill="none" stroke="#3A2C27" stroke-width="3.8" stroke-linecap="round" opacity=".65"/><path d="M242.2 286.1 q -51.6 -3.4 -96.3 -1.7" fill="none" stroke="#3A2C27" stroke-width="3.8" stroke-linecap="round" opacity=".65"/><path d="M242.2 301.6 q -51.6 3.4 -96.3 13.8" fill="none" stroke="#3A2C27" stroke-width="3.8" stroke-linecap="round" opacity=".65"/><path d="M317.8 270.6 q 51.6 -10.3 96.3 -17.2" fill="none" stroke="#3A2C27" stroke-width="3.8" stroke-linecap="round" opacity=".65"/><path d="M317.8 286.1 q 51.6 -3.4 96.3 -1.7" fill="none" stroke="#3A2C27" stroke-width="3.8" stroke-linecap="round" opacity=".65"/><path d="M317.8 301.6 q 51.6 3.4 96.3 13.8" fill="none" stroke="#3A2C27" stroke-width="3.8" stroke-linecap="round" opacity=".65"/></g></svg>